<svg xmlns="http://www.w3.org/2000/svg" width="45" height="45" fill="none" viewBox="0 0 45 45"><rect width="44" height="44" x=".5" y=".5" fill="#20174F" rx="22"/><g filter="url(#filter0_d_779_265)"><rect width="10" height="10" x="10.5" y="12" fill="#DCD7F4" rx="3"/></g><g filter="url(#filter1_d_779_265)"><rect width="8.485" height="8.485" x="23" y="29" fill="#412E9E" rx="2" transform="rotate(-45 23 29)"/></g><g filter="url(#filter2_d_779_265)"><path fill="#DCD7F4" d="M15.1037 24.8111C15.4709 24.0691 16.5291 24.0691 16.8963 24.8111L20.4818 32.0565C20.8107 32.7211 20.3271 33.5 19.5855 33.5H12.4145C11.6729 33.5 11.1893 32.7211 11.5182 32.0565L15.1037 24.8111Z"/></g><g filter="url(#filter3_d_779_265)"><path fill="#DCD7F4" fill-rule="evenodd" d="M29 22C31.7614 22 34 19.7614 34 17C34 14.2386 31.7614 12 29 12C26.2386 12 24 14.2386 24 17C24 19.7614 26.2386 22 29 22ZM29 20C30.6569 20 32 18.6569 32 17C32 15.3431 30.6569 14 29 14C27.3431 14 26 15.3431 26 17C26 18.6569 27.3431 20 29 20Z" clip-rule="evenodd"/></g><rect width="44" height="44" x=".5" y=".5" stroke="#312277" rx="22"/><defs><filter id="filter0_d_779_265" width="18" height="18" x="6.5" y="9" color-interpolation-filters="sRGB" filterUnits="userSpaceOnUse"><feFlood flood-opacity="0" result="BackgroundImageFix"/><feColorMatrix in="SourceAlpha" result="hardAlpha" type="matrix" values="0 0 0 0 0 0 0 0 0 0 0 0 0 0 0 0 0 0 127 0"/><feOffset dy="1"/><feGaussianBlur stdDeviation="2"/><feComposite in2="hardAlpha" operator="out"/><feColorMatrix type="matrix" values="0 0 0 0 0.392157 0 0 0 0 0.309804 0 0 0 0 0.8 0 0 0 0.15 0"/><feBlend in2="BackgroundImageFix" mode="normal" result="effect1_dropShadow_779_265"/><feBlend in="SourceGraphic" in2="effect1_dropShadow_779_265" mode="normal" result="shape"/></filter><filter id="filter1_d_779_265" width="18.343" height="18.343" x="19.828" y="23.828" color-interpolation-filters="sRGB" filterUnits="userSpaceOnUse"><feFlood flood-opacity="0" result="BackgroundImageFix"/><feColorMatrix in="SourceAlpha" result="hardAlpha" type="matrix" values="0 0 0 0 0 0 0 0 0 0 0 0 0 0 0 0 0 0 127 0"/><feOffset dy="4"/><feGaussianBlur stdDeviation="2"/><feComposite in2="hardAlpha" operator="out"/><feColorMatrix type="matrix" values="0 0 0 0 0.12549 0 0 0 0 0.0901961 0 0 0 0 0.309804 0 0 0 1 0"/><feBlend in2="BackgroundImageFix" mode="normal" result="effect1_dropShadow_779_265"/><feBlend in="SourceGraphic" in2="effect1_dropShadow_779_265" mode="normal" result="shape"/></filter><filter id="filter2_d_779_265" width="17.174" height="17.245" x="7.413" y="21.255" color-interpolation-filters="sRGB" filterUnits="userSpaceOnUse"><feFlood flood-opacity="0" result="BackgroundImageFix"/><feColorMatrix in="SourceAlpha" result="hardAlpha" type="matrix" values="0 0 0 0 0 0 0 0 0 0 0 0 0 0 0 0 0 0 127 0"/><feOffset dy="1"/><feGaussianBlur stdDeviation="2"/><feComposite in2="hardAlpha" operator="out"/><feColorMatrix type="matrix" values="0 0 0 0 0.392157 0 0 0 0 0.309804 0 0 0 0 0.8 0 0 0 0.15 0"/><feBlend in2="BackgroundImageFix" mode="normal" result="effect1_dropShadow_779_265"/><feBlend in="SourceGraphic" in2="effect1_dropShadow_779_265" mode="normal" result="shape"/></filter><filter id="filter3_d_779_265" width="18" height="18" x="20" y="9" color-interpolation-filters="sRGB" filterUnits="userSpaceOnUse"><feFlood flood-opacity="0" result="BackgroundImageFix"/><feColorMatrix in="SourceAlpha" result="hardAlpha" type="matrix" values="0 0 0 0 0 0 0 0 0 0 0 0 0 0 0 0 0 0 127 0"/><feOffset dy="1"/><feGaussianBlur stdDeviation="2"/><feComposite in2="hardAlpha" operator="out"/><feColorMatrix type="matrix" values="0 0 0 0 0.392157 0 0 0 0 0.309804 0 0 0 0 0.8 0 0 0 0.15 0"/><feBlend in2="BackgroundImageFix" mode="normal" result="effect1_dropShadow_779_265"/><feBlend in="SourceGraphic" in2="effect1_dropShadow_779_265" mode="normal" result="shape"/></filter></defs></svg>