<svg xmlns="http://www.w3.org/2000/svg" width="717" height="539" fill="none" viewBox="0 0 717 539"><path fill="url(#paint0_linear_516_329)" fill-opacity=".15" d="M983.954 0.330322L969.654 16.2107C955.618 32.7498 926.619 63.5224 898.283 95.9418C869.946 128.361 840.948 159.134 802.027 165.204C763.107 171.274 712.942 149.349 677.528 164.147C641.716 177.957 620.656 228.492 595.428 268.651C570.597 309.799 541.599 340.572 495.601 329.021C449.206 316.482 385.811 261.62 339.417 249.081C293.419 237.53 264.42 268.302 243.161 318.343C221.638 367.725 207.192 434.727 171.579 449.032C135.966 463.336 79.1861 424.942 47.079 447.975C15.2365 471.666 7.40526 555.137 3.95267 598.025L0.235498 640.255L63.7364 798.35L81.5429 791.198C99.3493 784.046 134.962 769.741 170.575 755.437C206.188 741.133 241.801 726.828 277.414 712.524C313.027 698.22 348.64 683.915 384.252 669.611C419.865 655.306 455.478 641.002 491.091 626.698C526.704 612.393 562.317 598.089 597.93 583.785C633.543 569.48 669.156 555.176 704.768 540.872C740.381 526.567 775.994 512.263 811.607 497.958C847.22 483.654 882.833 469.35 918.446 455.045C954.059 440.741 989.672 426.437 1025.28 412.132C1060.9 397.828 1096.51 383.524 1114.32 376.371L1132.12 369.219L983.954 0.330322Z"/><defs><linearGradient id="paint0_linear_516_329" x1="24.469" x2="1041.59" y1="698.229" y2="216.845" gradientUnits="userSpaceOnUse"><stop stop-color="#644FCC" stop-opacity=".8"/><stop offset="1" stop-color="#5272F3" stop-opacity=".3"/></linearGradient></defs></svg>