<svg xmlns="http://www.w3.org/2000/svg" width="512" height="512" fill="none" viewBox="0 0 512 512"><style>rect{fill:#101114}path{fill:#b9cef8}@media (prefers-color-scheme:dark){rect{fill:#b9cef8}path{fill:#010114}}</style><rect width="512" height="512" rx="256"/><path d="M228.386 347.41C215.693 347.41 204.286 344.518 194.164 338.734C184.042 332.95 176.009 325.077 170.064 315.116C164.28 304.994 161.388 293.587 161.388 280.894V176.3H189.103V280.653C189.103 288.847 190.79 295.997 194.164 302.102C197.699 308.047 202.438 312.706 208.383 316.08C214.328 319.293 220.995 320.9 228.386 320.9C235.937 320.9 242.605 319.293 248.389 316.08C254.173 312.706 258.752 308.047 262.126 302.102C265.5 295.997 267.187 288.927 267.187 280.894V176.3H294.902V281.135C294.902 293.828 292.01 305.155 286.226 315.116C280.442 325.077 272.569 332.95 262.608 338.734C252.647 344.518 241.239 347.41 228.386 347.41ZM326.336 345V229.32H352.846V345H326.336ZM339.591 208.112C335.092 208.112 331.316 206.586 328.264 203.533C325.372 200.48 323.926 196.705 323.926 192.206C323.926 187.707 325.372 183.932 328.264 180.879C331.316 177.826 335.092 176.3 339.591 176.3C344.25 176.3 348.026 177.826 350.918 180.879C353.81 183.932 355.256 187.707 355.256 192.206C355.256 196.705 353.81 200.48 350.918 203.533C348.026 206.586 344.25 208.112 339.591 208.112Z"/></svg>